<svg xmlns="http://www.w3.org/2000/svg" width="464" height="418" viewBox="0 0 464 418">
    <g fill="none" fill-rule="evenodd" transform="translate(.012 .38)">
        <rect width="380" height="344" x="55.877" y="31" fill="#FFF8E3" rx="30" transform="rotate(10 245.877 203)"/>
        <rect fill="#FFBFA7" style="mix-blend-mode:multiply" width="327" height="153" x="18" y="201.853" rx="76" transform="rotate(25 181.5 278.353)"/>
        <g fill-rule="nonzero">
            <path fill="#FFD938" d="M153.88 110.574c-3.747 2.768-3.15 8.215-2.022 12.173 1.66 5.827 4.97 11.222 8.743 15.872 6.696 8.25 18.063 17.512 28.54 10.27 9.332-6.45 15.217-19.465 17.249-30.427.628-3.388 1.464-8.435-1.486-10.982-4.362-3.765-12.055-3.08-17.32-2.595-3.468.319-6.814 1.402-10.24.893-7.962-1.182-16.823-.11-23.464 4.796" transform="translate(51.988 79.12)"/>
            <g fill="#001240">
                <path d="M313.968 149.678c-7.706 9.823-20.809 11.375-32.446 11.279-6.988-.058-13.99-.587-20.84-2.018-3.694-.771-7.362-1.793-10.93-3.02-2.358-.812-5.867-1.217-6.87-3.755-2.647-6.696-.7-15.093.39-21.889.554-3.457.97-6.934 1.51-10.394.344-2.213.51-4.663 1.433-6.733 1.08-2.426 2.446-1.942 4.733-1.271 3.15.924 6.384 1.308 9.622 1.804 7.904 1.213 14.8 3.658 21.983 7.124 7.103 3.427 13.993 6.81 20.329 11.575 3.21 2.415 5.976 5.036 8.552 8.114 1.991 2.378 4.962 6.09 2.534 9.184m-33.688 43.63c-.062 1.057-12.14-2.136-13.73-2.494-10.43-2.35-21.065-5.027-30.91-9.274-9.19-3.963-17.288-8.498-24.52-15.54-3.37-3.283-6.403-6.74-9.304-10.42-1.454-1.846-3.44-1.632-5.062-3.193-1.459-1.404-2.577-2.501-2.122-4.602 3.645.965 10.375 7.03 14.153 3.968 2.154-1.746-.833-3.57-2.212-4.581-2.592-1.903-4.808-4.25-6.869-6.713 3.538.69 6.831 2.02 9.91 3.874 1.368.823 6.057 3.808 7.148.963.672-1.753-2.507-3.954-3.499-4.923-2.434-2.38-5.061-5.158-6.353-8.357 3.195-.745 6.206 1.736 8.382 3.757 2.415 2.244 5.376 4.598 7.401 7.184 1.045 1.333 1.273 2.908 2.089 4.346.918 1.618 2.387 3.005 3.791 4.203 2.705 2.307 5.869 4.005 9.116 5.41 7.421 3.21 15.376 5.482 23.286 7.076 3.88.782 7.665 1.142 11.604 1.275 3.061.103 4.416 1.023 5.584 3.857 3.163 7.668 2.589 16.103 2.117 24.183m-90.836-58.427c-1.77 1.664-4.07 2.707-5.92 4.307-1.627 1.407-3.505 2.91-5.321 4.047-1.94 1.215-3.39.364-5.136-.736-2.05-1.29-4.406-1.812-6.518-2.966-7.3-3.992-16.232-13.775-14.87-22.757.578-3.807 2.537-7.553 6.095-9.28 3.23-1.569 7.926-2.439 11.382-1.128 1.95.74 3.345 2.373 4.594 3.978 1.457 1.871 2.015 1.576 3.498-.229 2.654-3.228 7.031-6.061 11.358-5.993 2.151.034 4.287.49 6.225 1.387.262.121.408.49.672.614.323.153.855-.165 1.08-.022.567.36 1.133 1.488 1.46 2.06 1.313 2.294 3.677 6.795 1.295 8.727-.002 0 .106 2.614.073 2.912-.168 1.559-.704 2.846-1.395 4.272-2.076 4.283-5.14 7.581-8.572 10.807m3.53 36.24c-1.677.524-3.483-4.755-1.875-5.597 1.533-.804 3.392 5.124 1.874 5.598m-26.332-6.312c-.58 1.994-.826 4.257-2.246 5.88-1.3-1.55-1.428-4.41-.168-6.003.72-.91 3.049-2.056 2.414.123m53.651-34.94c-.01.051 2.017 1.025 1.029 2.09-1.351 1.455-1.166-1.377-1.029-2.09m8.376-16.252c-.024 2.017-4.272 1.53-4.242-.498.038-2.496 4.267-1.639 4.242.498m-5.071-16.851c.42-1.846 7.81-4.414 7.608-1.197-.1 1.613-8.5 5.122-7.608 1.197m-75.754 62.604c-.828 1.001-2.005 1.395-2.998 2.164-1.041.804-1.785 1.849-2.694 2.794-2.498 2.594-5.504 4.726-8.198 7.109-4.953 4.38-9.698 9.09-15.19 12.806-9.814 6.638-21.194 10.27-32.492 13.449-.936.263-3.632 1.326-4.558.535-.999-.854-.49-3.86-.445-4.996.187-4.658.728-9.372.67-14.023-.025-1.911-.582-4.627.41-6.375 1.108-1.953 4.201-2.524 6.115-3.259 5.815-2.233 11.417-6 16.554-9.49 6.315-4.288 12.692-8.649 19.19-12.653 6.368-3.923 13.39-6.55 20.492-8.79.33.695-3.06 2.93-3.447 3.244-1.858 1.502-3.88 3.06-5.258 5.044-.977 1.405-1.978 4.583.718 4.664 1.307.04 3.239-1.23 4.424-1.641 1.958-.679 3.974-1.155 6.022-1.465-1.76 1.947-7.727 5.445-6.641 8.684 1.053 3.142 7.145-.525 9.243-.525-.344 1.096-1.208 1.869-1.917 2.724m-71.974 8.772c-3.902 1.379-7.9 2.163-11.927 3.052-3.839.849-7.386 1.488-11.317.991-5.428-.685-11.435-2.944-12.123-9.141-.816-7.342 4.345-14.09 8.776-19.357 5.394-6.41 11.45-12.139 18.013-17.327 6.556-5.183 13.632-9.752 21.046-13.61 5.64-2.935 12.01-4.717 17.973-6.919 1.135-.419 4.273-1.891 5.334-.671.857.986-.31 2.63-.7 3.546-.763 1.786-.868 3.584-1.065 5.502-.88 8.564-1.938 17.125-2.425 25.726-.135 2.397-.374 4.904-.235 7.303.077 1.328.765 3.02.307 4.317-.881 2.494-4.915 4.144-7.053 5.258-3.827 1.994-7.88 3.482-11.746 5.389-4.246 2.094-8.38 4.358-12.858 5.94m54.11-55.644c1.07-.148 2.675-.44 3.63.256 1.245.91.918 2.174-.232 2.834-.908.52-3.033.663-3.93.19-1.529-.805-1.27-3.03.532-3.28m5.93 19.83c-.865 1.448-4.027 2.398-3.752-.304.236-2.314 5.347-2.363 3.753.304m-1.174-40.798c1.39.542 3.916 1.005 4.328 2.803.384 1.674-1.194 1.563-2.333 1.102-.937-.378-5.11-3.934-1.995-3.905m217.97 63.842c-.812-3.177-.193-6.695-.641-9.949-.435-3.154-1.218-6.053-2.341-9.025-2.487-6.582-5.336-12.506-9.368-18.282-7.592-10.877-16.4-20.457-27.038-28.402-10.5-7.843-22.129-14.217-34.447-18.684-13.062-4.738-26.21-6.387-39.984-7.295-4.114-.27-8.223-.592-12.313-1.114-2.99-.382-6.737-.852-9.693.068-1.857.579-2.894 2.206-.871 3.273 1.434.758 3.312.848 4.895 1.05-1.913 6.107-5.026 12.235-9.96 16.44-4.817 4.107-11.262 5.514-17.341 6.555-3.297.565-6.988 1.001-10.335.758-2.117-.153-3.768-1.138-4.622 1.052-.593 1.522-.873 3.192-1.654.894-.924-2.716-1.378-2.7-4.252-3.47-5.878-1.578-12.617-3.018-17.745-6.43-5.32-3.54-7.171-9.267-10.141-14.6-.735-1.318-2.95-3.986-1.818-5.496 1.035-1.381 4.402-1.244 5.944-1.388 1.627-.152 3.264-.158 4.896-.222.946-.037 2.848.353 2.468-1.066-.574-2.14-6.725-1.865-8.252-1.9-2.84-.064-5.72.002-8.546.316-14.012 1.557-28.15 4.436-41.71 8.275-26.306 7.448-51.785 21.173-70.984 40.945-18.429 18.979-24.268 50.562-12.938 74.796 5.887 12.594 18.665 17.768 31.051 21.946 6.533 2.204 13.452 3.928 20.396 3.512 3.333-.2 6.496-1.101 9.746-1.78 1.417-.297 3.03-.77 4.487-.65 1.102.09 2.16 1.107 3.195.567.733-.384 1.052-1.484 1.95-1.953 1.076-.563 2.381-.766 3.544-1.05 3.232-.789 6.362-2.068 9.521-3.117 3.267-1.085 6.35-2.482 9.484-3.894 1.583-.713 5.246-3.614 6.278-1.493.47.967.27 2.834.384 3.849.2 1.775.436 3.546.694 5.314.568 3.891 1.248 7.766 1.944 11.637 1.258 6.983 2.878 13.669 5.587 20.238 2.163 5.245 4.062 11.19 8.078 15.363 1.753 1.821 4.146 2.64 6.66 2.068 2.861-.65 4.285-3.262 6.022-5.372 3.82-4.646 10.128-8.205 15.953-9.486 7.132-1.569 14.08.726 20.888 2.676 7.202 2.064 14.533 4.03 21.602 6.51 6.587 2.311 13.7 5.725 20.843 5.428 6.23-.26 12.048-5.353 16.54-9.236 4.513-3.9 10.155-9.61 16.643-9.151 3.222.228 6.158 1.79 9.296 2.424 3.445.697 7.11.796 10.614 1.056 4.349.322 14.078-.817 15.686-6.073.24-.78.24-2.386-.784-2.698-.943-.287-1.425.82-2.318.77-1.817-.103-3.237-3.286-4.235-4.519-4.03-4.975-9.556-8.686-14.076-13.181-5.105-5.075-9.464-11.224-13.31-17.288 1.739-.454 3.615.3 5.298.658 2.045.435 4.038.961 6.053 1.519 2.221.614 4.474 1.036 6.728 1.505 1.682.349 3.914.454 5.432 1.301 1.326.74 2.065 1.536 3.71 1.75 1.674.218 3.391.034 5.072.023 4.546-.03 9.083-.116 13.608-.599 15.988-1.706 32.935-8.5 42.55-21.985 2.614-3.668 4.72-7.732 6.052-12.043 1.039-3.367 2.83-8.11 1.926-11.645" transform="translate(51.988 79.12) rotate(1 -14.327 292.87)"/>
                <path d="M202.752.004c4.201.06 8.14 1.311 12.054 2.734 3.443 1.252 7.114 2.41 9.898 4.907 5.007 4.493 6.311 11.932 7.13 18.297 1.023 7.942-2.379 14.605-5.241 21.79-2.678 6.72-7.592 12.165-13.433 16.313-3.06 2.173-6.442 3.485-9.98 4.635-3.595 1.168-7.076 2.733-10.922 2.727-5.84-.009-13.317-2.796-15.805-8.577-1.132-2.632-.03-3.104 2.237-1.674 3.288 2.076 6.458 4.315 10.3 5.236 7.451 1.786 16.376-.98 22.91-4.632 6.531-3.65 10.916-9.133 13.846-15.96 2.957-6.887 4.106-13.674 2.966-21.1-.967-6.292-2.889-12.04-8.532-15.456-12.184-7.373-28.598-6.779-39.433 2.803-1.486 1.314-2.955 2.592-4.486 3.846-.973.798-2.12 1.754-1.978 3.133.12 1.18 2.626 5.733-.39 4.334-2.446-1.133-3.775-3.35-6.738-3.624-3.153-.292-6.915 2.142-7.858 5.205-.9 2.923.705 6.922 3.218 8.598 1.556 1.039 3.268.878 5.036.836.877-.02 3.318-.307 3.899.625 1.027 1.647-2.597 3.38-3.766 3.744-2.845.887-6.208-.157-7.843-2.709-1.663-2.594-2.801-5.597-3.03-8.688-.22-2.96.45-5.959 2.188-8.39 1.85-2.586 5.62-5.485 9-4.587 1.466.39 2.644 1.913 4.084 2.202.909.182.526.313 1.279-.364.478-.43.93-1.221 1.37-1.73 2.537-2.926 5.045-6.049 8.15-8.39 5.566-4.2 12.964-6.183 19.87-6.084zm-15.393 58.009c.658-1.55 1.868 1.215 2.225 1.678.708.915 2.373 1.627 2.3 2.976-.118 2.228-3.14 1.815-4.148.652-1.147-1.323-1.027-3.775-.377-5.306zm21.472-10.548c1.63 2.552-.357 5.308-1.646 7.568-1.232 2.16-2.377 4.602-3.812 6.633-2.382 3.373-7.564-.275-7.718-3.741-.118-2.653 1.753-1.498 2.953-.507 1.236 1.02 1.821 1.274 3.117.16 2.606-2.244 3.776-5.995 5.578-8.835.357-.563 1.004-.902 1.528-1.278zm4.648.82c.42 1.235-.462 4.506 1.99 4.18 1.355-.181 1.644-2.135 2.356-2.987 2.396-2.866 1.661 2.554 1.035 3.911-1.38 2.99-5.24 5.05-7.155 1.257-.713-1.411-.71-3.192-.348-4.709.197-.826 1.346-3.932 2.122-1.652zm-21.865-5.847c-.217 1.44-1.565 4.31.08 5.341 1.448.907 3.97-1.063 5.084-1.885 1.159-.855 3.784-3.307 3.887-.255.053 1.555-1.497 3.421-2.603 4.317-2.359 1.911-7.26 3.625-9 .028-.946-1.959-.428-4.748.198-6.723.507-1.6 2.878-4.302 2.354-.823zm30.941-7.886c.96 1.12 3.236 3.63 1.999 5.225-1.447 1.864-3.797-1.557-4.724-2.509-.835-.858-2.59-3.3-1.842-4.596 1.24-2.144 3.724.896 4.567 1.88zm-15.09-4.824c3.139 2.054-.987 3.533-2.774 3.717-2.164.222-4.93.37-6.916-.697-2.817-1.512-1.878-3.796.852-4.343 2.799-.56 6.404-.271 8.839 1.323zM166.67 23.19c2.308.452 4.944 1.039 5.73 3.567.811 2.612-.355 3.479-2.712 2.89-2.181-.543-5.438-1.091-6.671-3.232-1.474-2.557 1.513-3.642 3.653-3.225zM39.693 79.325c-.775 2.512-4.694 4.18-6.649 5.707-6.837 5.344-13.518 10.908-19.699 17.007-3.208 3.166-5.636 6.995-8.418 10.516-.68.86-1.882 2.784-3.213 2.603-1.46-.197-1.756-2.725-1.71-3.829.16-3.764 3.582-7.4 6.022-9.992 2.745-2.914 5.68-5.755 8.677-8.409 3.3-2.921 6.88-5.433 10.53-7.892 3.583-2.414 7.018-5.203 10.745-7.39 1.755-1.03 4.67-1.422 3.715 1.679zM278.684 55.46c2.854.09 5.64 1.031 8.33 1.904 5.92 1.921 11.56 4.586 17.12 7.371 9.747 4.882 19.128 10.789 27.727 17.505 1.798 1.403 3.64 2.54 5.595 3.688 1.251.735 3.035 1.632 3.517 3.13 1.224 3.81-4.955-.013-5.832-.56l-1.234-.769c-18.295-11.393-36.57-22.462-57.265-28.996-1.102-.348-1.445-1.336-.867-2.315.627-1.061 1.85-.991 2.91-.958zM38.86 63.432c-.132 1.16-1.44 1.424-2.321 1.796-3.29 1.389-6.663 2.573-9.944 3.984-6.09 2.62-11.683 6.422-18.04 8.41-1.452.456-1.666-1.017-1.277-2.02.433-1.119 1.734-1.904 2.675-2.551 2.714-1.868 5.792-3.212 8.807-4.51 2.988-1.287 6.065-2.26 9.129-3.34 2.847-1.003 6.152-2.87 9.21-3.008l.134-.007c.973-.05 1.781-.115 1.627 1.246zM283.88 45.814c-2.91-.823-.16-2.673 1.568-2.543 1.93.145 3.794 1.06 5.623 1.612 5.593 1.687 10.777 3.532 16.002 6.151.78.391 4.212 2.245 1.941 3.066-1.573.569-5.249-1.871-6.6-2.457-5.938-2.572-12.318-4.073-18.534-5.83z" transform="translate(51.988 79.12) rotate(1 -14.327 292.87)"/>
                <path d="M167.894 51.804c.364-1.072 4.862-12.792 3.101-13.145-1.865-.375-4.358 6.425-4.898 7.653-1.998 4.538-3.181 9.406-4.109 14.273-.645 3.389-1.212 6.86-.986 10.325.173 2.663 1.268 3.066 3.072 4.697 0-8.087 1.223-16.148 3.82-23.803" transform="translate(51.988 79.12) rotate(1 -14.327 292.87)"/>
            </g>
        </g>
    </g>
</svg>
